<?xml version="1.0" encoding="utf-8"?>
<!-- Generator: Adobe Illustrator 14.0.0, SVG Export Plug-In . SVG Version: 6.00 Build 43363)  -->
<!DOCTYPE svg PUBLIC "-//W3C//DTD SVG 1.1//EN" "http://www.w3.org/Graphics/SVG/1.1/DTD/svg11.dtd">
<svg version="1.1" id="Layer_1" xmlns="http://www.w3.org/2000/svg" xmlns:xlink="http://www.w3.org/1999/xlink" x="0px" y="0px"
	 width="800px" height="800px" viewBox="0 0 800 800" enable-background="new 0 0 800 800" xml:space="preserve">
<path fill="none" stroke="#000000" d="M484,46"/>
<g id="XMLID_1_">
	<g>
		<path fill="#F2ED8C" d="M443.5,89.69l40.49-42.96c-0.17,14.51-5.601,26.13-12.29,26.13C471.7,82.04,459.15,89.48,443.5,89.69z"/>
		<path fill="#F2ED8C" d="M471.7,72.86c0,18.43-6.83,33.34-15.271,33.34c0,16.42-25.21,29.72-56.37,29.72l-0.07-0.06l43.51-46.17
			C459.15,89.48,471.7,82.04,471.7,72.86z"/>
		<path fill="#F2ED8C" d="M456.43,106.2c0,16.42-6.09,29.72-13.609,29.72c0,24.48-37.88,44.32-84.83,44.51l42-44.57l0.07,0.06
			C431.22,135.92,456.43,122.62,456.43,106.2z"/>
		<path fill="#F2ED8C" d="M442.82,135.92c0,16.63-6.17,30.09-13.79,30.09c0,29.6-48.28,53.56-108.09,53.74l37.05-39.32
			C404.94,180.24,442.82,160.4,442.82,135.92z"/>
		<path fill="#F2ED8C" d="M429.03,166.01c0,22.46-8.32,40.64-18.61,40.64c0,26.36-54.61,47.7-122.23,47.85l32.75-34.75
			C380.75,219.57,429.03,195.61,429.03,166.01z"/>
		<path fill="#F2ED8C" d="M410.42,206.65c0,26.45,6.58,47.85-21.92,61.02c-27.87,29.68-94.31,28.67-135.88,24.56l35.57-37.73
			C355.81,254.35,410.42,233.01,410.42,206.65z"/>
		<path fill="#F2ED8C" d="M388.5,267.67c0,40.09,0,44.66-28.01,63.94c-18.06,24.58-136.83,34.61-170.54,27.12l62.67-66.5
			C294.19,296.34,360.63,297.35,388.5,267.67z"/>
		<path fill="#F2ED8C" d="M360.49,331.61C374.64,391,328.55,463,293,463c9.26-20.21-105.01-73.08-158.92-44.99l55.87-59.28
			C223.66,366.22,342.43,356.19,360.49,331.61z"/>
	</g>
	<g>
		<polygon fill="none" stroke="#99CCFF" stroke-width="2" points="134.08,418.01 133.05,419.11 132.69,418.76 132.33,418.42 
			483.64,45.66 484,46 484.36,46.34 483.99,46.73 443.5,89.69 399.99,135.86 357.99,180.43 320.94,219.75 288.19,254.5 
			252.62,292.23 189.95,358.73 		"/>
		<path fill="none" stroke="#99CCFF" stroke-width="2" d="M293,463c9.26-20.21-105.01-73.08-158.92-44.99
			c-0.47,0.24-0.93,0.49-1.39,0.75"/>
		<path fill="none" stroke="#99CCFF" stroke-width="2" d="M360.49,331.61c-18.06,24.58-136.83,34.61-170.54,27.12
			c-0.19-0.04-0.38-0.09-0.56-0.13"/>
		<path fill="none" stroke="#99CCFF" stroke-width="2" d="M388.5,267.67c-27.87,29.68-94.31,28.67-135.88,24.56
			c-0.21-0.02-0.41-0.04-0.62-0.06"/>
		<path fill="none" stroke="#99CCFF" stroke-width="2" d="M410.42,206.65c0,26.36-54.61,47.7-122.23,47.85c-0.23,0-0.46,0-0.69,0"/>
		<path fill="none" stroke="#99CCFF" stroke-width="2" d="M429.03,166.01c0,29.6-48.28,53.56-108.09,53.74c-0.23,0-0.46,0-0.69,0"/>
		<path fill="none" stroke="#99CCFF" stroke-width="2" d="M442.82,135.92c0,24.48-37.88,44.32-84.83,44.51c-0.23,0-0.45,0-0.68,0"/>
		<path fill="none" stroke="#99CCFF" stroke-width="2" d="M456.43,106.2c0,16.42-25.21,29.72-56.37,29.72"/>
		<path fill="none" stroke="#99CCFF" stroke-width="2" d="M471.7,72.86c0,9.18-12.55,16.62-28.2,16.83
			c-0.23,0.01-0.45,0.01-0.68,0.01"/>
		<path fill="none" stroke="#99CCFF" stroke-width="2" d="M360.49,331.61C374.64,391,328.55,463,293,463"/>
		<path fill="none" stroke="#99CCFF" stroke-width="2" d="M388.5,267.67c0,40.09,0,44.66-28.01,63.94"/>
		<path fill="none" stroke="#99CCFF" stroke-width="2" d="M410.42,206.65c0,26.45,6.58,47.85-21.92,61.02"/>
		<path fill="none" stroke="#99CCFF" stroke-width="2" d="M429.03,166.01c0,22.46-8.32,40.64-18.61,40.64"/>
		<path fill="none" stroke="#99CCFF" stroke-width="2" d="M442.82,135.92c0,16.63-6.17,30.09-13.79,30.09"/>
		<path fill="none" stroke="#99CCFF" stroke-width="2" d="M456.43,106.2c0,16.42-6.09,29.72-13.609,29.72"/>
		<path fill="none" stroke="#99CCFF" stroke-width="2" d="M471.7,72.86c0,18.43-6.83,33.34-15.271,33.34"/>
		<path fill="none" stroke="#99CCFF" stroke-width="2" d="M484,46c0,0.25,0,0.49-0.01,0.73c-0.17,14.51-5.601,26.13-12.29,26.13"/>
	</g>
</g>
</svg>
